<svg width="460" height="44" viewBox="0 0 460 44" fill="none" xmlns="http://www.w3.org/2000/svg">
<path d="M0.981748 43C0.512415 43 0.277748 42.744 0.277748 42.232V1.848C0.277748 1.336 0.512415 1.08 0.981748 1.08H7.25375C7.72308 1.08 7.95775 1.336 7.95775 1.848V36.216H24.7897C25.3017 36.216 25.5577 36.472 25.5577 36.984V42.232C25.5577 42.744 25.3017 43 24.7897 43H0.981748ZM29.2507 43C28.6961 43 28.4827 42.7227 28.6107 42.168L42.4347 1.656C42.5627 1.272 42.8401 1.08 43.2667 1.08H51.4587C51.9281 1.08 52.2267 1.272 52.3547 1.656L66.2427 42.168C66.3281 42.424 66.3067 42.6373 66.1787 42.808C66.0934 42.936 65.9227 43 65.6667 43H58.8827C58.4561 43 58.1787 42.808 58.0507 42.424L49.7947 16.12C49.3681 14.712 48.9414 13.3253 48.5147 11.96C48.1307 10.552 47.7467 9.144 47.3627 7.736H47.2347C46.8507 9.10133 46.4454 10.488 46.0187 11.896C45.6347 13.2613 45.2294 14.6267 44.8027 15.992L36.7387 42.36C36.6107 42.7867 36.3121 43 35.8427 43H29.2507ZM38.0187 34.232L39.4907 27.96H55.0427L56.5787 34.232H38.0187ZM69.0772 43C68.7786 43 68.5866 42.9147 68.5012 42.744C68.4159 42.5733 68.4586 42.36 68.6292 42.104L82.1332 21.432L69.4612 1.976C69.3332 1.72 69.2906 1.50667 69.3332 1.336C69.4186 1.16533 69.6106 1.08 69.9092 1.08H77.3332C77.6746 1.08 77.9519 1.22933 78.1652 1.528L84.0532 10.872C84.5226 11.64 84.9919 12.4507 85.4612 13.304C85.9732 14.1573 86.4426 14.9893 86.8692 15.8H86.9332C87.4026 14.9467 87.8932 14.072 88.4052 13.176C88.9172 12.2373 89.4292 11.384 89.9412 10.616L95.5732 1.528C95.7866 1.22933 96.0852 1.08 96.4692 1.08H103.637C103.936 1.08 104.107 1.16533 104.149 1.336C104.235 1.50667 104.213 1.72 104.085 1.976L91.4772 21.496L104.789 42.104C104.96 42.36 105.003 42.5733 104.917 42.744C104.832 42.9147 104.64 43 104.341 43H96.9172C96.5332 43 96.2346 42.8507 96.0212 42.552L89.8132 32.632C89.3012 31.864 88.7679 31.0107 88.2132 30.072C87.7012 29.0907 87.2106 28.152 86.7412 27.256H86.6132C86.1439 28.1093 85.6319 29.0053 85.0772 29.944C84.5652 30.8827 84.0532 31.736 83.5412 32.504L77.2692 42.488C77.0559 42.8293 76.7572 43 76.3732 43H69.0772ZM111.631 43C111.161 43 110.927 42.744 110.927 42.232V1.848C110.927 1.336 111.161 1.08 111.631 1.08H117.839C118.351 1.08 118.607 1.336 118.607 1.848V42.232C118.607 42.744 118.351 43 117.839 43H111.631ZM138.597 43C138.085 43 137.829 42.744 137.829 42.232V7.864H126.821C126.309 7.864 126.053 7.608 126.053 7.096V1.848C126.053 1.336 126.309 1.08 126.821 1.08H156.581C157.093 1.08 157.349 1.336 157.349 1.848V7.096C157.349 7.608 157.093 7.864 156.581 7.864H145.573V42.232C145.573 42.744 145.317 43 144.805 43H138.597ZM157.158 43C156.603 43 156.39 42.7227 156.518 42.168L170.342 1.656C170.47 1.272 170.747 1.08 171.174 1.08H179.366C179.835 1.08 180.134 1.272 180.262 1.656L194.15 42.168C194.235 42.424 194.214 42.6373 194.086 42.808C194 42.936 193.83 43 193.574 43H186.79C186.363 43 186.086 42.808 185.958 42.424L177.702 16.12C177.275 14.712 176.848 13.3253 176.422 11.96C176.038 10.552 175.654 9.144 175.27 7.736H175.142C174.758 9.10133 174.352 10.488 173.926 11.896C173.542 13.2613 173.136 14.6267 172.71 15.992L164.646 42.36C164.518 42.7867 164.219 43 163.75 43H157.158ZM165.926 34.232L167.398 27.96H182.95L184.486 34.232H165.926ZM214.6 43C214.131 43 213.896 42.744 213.896 42.232V1.848C213.896 1.336 214.131 1.08 214.6 1.08H239.112C239.582 1.08 239.816 1.336 239.816 1.848V7.096C239.816 7.608 239.582 7.864 239.112 7.864H221.576V19.192H236.68C237.15 19.192 237.384 19.448 237.384 19.96V25.016C237.384 25.4853 237.15 25.72 236.68 25.72H221.576V42.232C221.576 42.744 221.32 43 220.808 43H214.6ZM241.494 43C240.94 43 240.726 42.7227 240.854 42.168L254.678 1.656C254.806 1.272 255.084 1.08 255.51 1.08H263.702C264.172 1.08 264.47 1.272 264.598 1.656L278.486 42.168C278.572 42.424 278.55 42.6373 278.422 42.808C278.337 42.936 278.166 43 277.91 43H271.126C270.7 43 270.422 42.808 270.294 42.424L262.038 16.12C261.612 14.712 261.185 13.3253 260.758 11.96C260.374 10.552 259.99 9.144 259.606 7.736H259.478C259.094 9.10133 258.689 10.488 258.262 11.896C257.878 13.2613 257.473 14.6267 257.046 15.992L248.982 42.36C248.854 42.7867 248.556 43 248.086 43H241.494ZM250.262 34.232L251.734 27.96H267.286L268.822 34.232H250.262ZM297.345 43.768C293.761 43.768 290.795 43.2773 288.449 42.296C286.145 41.3147 284.481 39.9067 283.457 38.072C282.433 36.1947 282.027 33.9333 282.241 31.288C282.326 30.5627 282.625 30.2 283.137 30.2H289.153C289.707 30.2 289.963 30.52 289.921 31.16C289.921 33.2507 290.561 34.7867 291.841 35.768C293.121 36.7067 295.083 37.176 297.729 37.176C300.331 37.176 302.251 36.7707 303.489 35.96C304.769 35.1067 305.409 33.8053 305.409 32.056C305.409 31.2453 305.259 30.5413 304.961 29.944C304.662 29.304 304.15 28.7493 303.425 28.28C302.699 27.768 301.718 27.256 300.481 26.744L291.201 22.776C289.153 21.88 287.51 20.92 286.273 19.896C285.035 18.8293 284.161 17.6133 283.649 16.248C283.137 14.8827 282.881 13.3253 282.881 11.576C282.923 7.94933 284.139 5.176 286.529 3.256C288.918 1.336 292.481 0.375999 297.217 0.375999C300.545 0.375999 303.361 0.845332 305.665 1.784C308.011 2.68 309.761 4.024 310.913 5.816C312.065 7.56533 312.513 9.76267 312.257 12.408C312.171 13.176 311.915 13.56 311.489 13.56H305.409C305.153 13.56 304.961 13.4747 304.833 13.304C304.705 13.1333 304.662 12.8347 304.705 12.408C304.833 10.7013 304.214 9.35733 302.849 8.376C301.526 7.352 299.627 6.84 297.153 6.84C294.977 6.84 293.334 7.224 292.225 7.992C291.115 8.76 290.561 9.912 290.561 11.448C290.561 12.2587 290.71 12.984 291.009 13.624C291.307 14.2213 291.819 14.776 292.545 15.288C293.313 15.8 294.337 16.3333 295.617 16.888L304.769 20.792C306.859 21.6453 308.502 22.6053 309.697 23.672C310.934 24.696 311.809 25.8907 312.321 27.256C312.875 28.6213 313.131 30.2427 313.089 32.12C313.089 35.832 311.83 38.712 309.313 40.76C306.795 42.7653 302.806 43.768 297.345 43.768ZM322.562 43C322.092 43 321.858 42.744 321.858 42.232V1.848C321.858 1.336 322.092 1.08 322.562 1.08H328.77C329.282 1.08 329.538 1.336 329.538 1.848V18.296H347.458V1.848C347.458 1.336 347.714 1.08 348.226 1.08H354.434C354.903 1.08 355.138 1.336 355.138 1.848V42.232C355.138 42.744 354.903 43 354.434 43H348.226C347.714 43 347.458 42.744 347.458 42.232V24.952H329.538V42.232C329.538 42.744 329.282 43 328.77 43H322.562ZM366.32 43C365.85 43 365.616 42.744 365.616 42.232V1.848C365.616 1.336 365.85 1.08 366.32 1.08H372.528C373.04 1.08 373.296 1.336 373.296 1.848V42.232C373.296 42.744 373.04 43 372.528 43H366.32ZM399.814 43.768C394.182 43.768 389.958 42.424 387.142 39.736C384.326 37.0053 382.918 33.1013 382.918 28.024V16.056C382.918 10.936 384.326 7.032 387.142 4.344C389.958 1.656 394.182 0.311996 399.814 0.311996C405.404 0.311996 409.606 1.656 412.422 4.344C415.238 7.032 416.646 10.936 416.646 16.056V28.024C416.646 33.1013 415.238 37.0053 412.422 39.736C409.606 42.424 405.404 43.768 399.814 43.768ZM399.814 37.048C402.844 37.048 405.126 36.2587 406.662 34.68C408.198 33.0587 408.966 30.712 408.966 27.64V16.44C408.966 13.368 408.198 11.0427 406.662 9.464C405.126 7.84266 402.844 7.032 399.814 7.032C396.785 7.032 394.481 7.84266 392.902 9.464C391.366 11.0427 390.598 13.368 390.598 16.44V27.64C390.598 30.712 391.366 33.0587 392.902 34.68C394.481 36.2587 396.785 37.048 399.814 37.048ZM427.086 43C426.616 43 426.382 42.744 426.382 42.232V1.848C426.382 1.336 426.616 1.08 427.086 1.08H436.174C436.6 1.08 436.899 1.25067 437.07 1.592L447.374 22.392C448.099 23.8 448.76 25.1653 449.358 26.488C449.998 27.8107 450.574 29.0693 451.086 30.264C451.598 31.4587 452.046 32.568 452.43 33.592H452.622C452.579 32.7387 452.536 31.8213 452.494 30.84C452.451 29.8587 452.408 28.856 452.366 27.832C452.323 26.808 452.302 25.8053 452.302 24.824C452.302 23.8427 452.302 22.9253 452.302 22.072V1.848C452.302 1.336 452.536 1.08 453.006 1.08H459.022C459.534 1.08 459.79 1.336 459.79 1.848V42.232C459.79 42.744 459.534 43 459.022 43H450.062C449.635 43 449.336 42.8293 449.166 42.488L439.182 22.392C438.542 21.112 437.902 19.8107 437.262 18.488C436.664 17.1227 436.067 15.7787 435.47 14.456C434.915 13.1333 434.382 11.8747 433.87 10.68H433.678C433.72 11.6613 433.742 12.664 433.742 13.688C433.784 14.712 433.806 15.736 433.806 16.76C433.848 17.784 433.87 18.808 433.87 19.832C433.87 20.856 433.87 21.88 433.87 22.904V42.232C433.87 42.744 433.614 43 433.102 43H427.086Z" fill="black"/>
</svg>
