<svg width="297" height="29" viewBox="0 0 297 29" fill="none" xmlns="http://www.w3.org/2000/svg">
<rect width="297" height="29" fill="#1E1E1E"/>
<path d="M5.6909 1.47341V23.5458H13.8835V28H0.520796V1.47341H5.6909ZM33.1633 22.4322H22.4651L20.1187 28H14.5111L25.9251 1.47341H29.9817L41.0775 28H35.5097L33.1633 22.4322ZM31.652 18.2166L27.8739 8.67178L24.0957 18.2166H31.652ZM50.8559 14.001L42.9417 1.47341H49.1458L53.7989 9.7058L58.6906 1.47341H64.8948L56.7419 14.001L65.8095 28H59.6053L53.7989 18.2961L47.6743 28H41.4702L50.8559 14.001ZM74.7835 1.47341V28H69.6134V1.47341H74.7835ZM89.1893 5.92765V28H84.0192V5.92765H78.0537V1.47341H95.1548V5.92765H89.1893ZM114.14 22.4322H103.442L101.096 28H95.4881L106.902 1.47341H110.959L122.055 28H116.487L114.14 22.4322ZM112.629 18.2166L108.851 8.67178L105.073 18.2166H112.629ZM148.512 5.92765H139.604V11.8534H147.956V16.3076H139.604V28H134.434V1.47341H148.512V5.92765ZM168.669 22.4322H157.971L155.624 28H150.017L161.431 1.47341H165.487L176.583 28H171.015L168.669 22.4322ZM167.157 18.2166L163.379 8.67178L159.601 18.2166H167.157ZM192.725 7.51845C192.327 7.01469 191.916 6.617 191.492 6.32535C191.094 6.00719 190.696 5.76857 190.299 5.60949C189.927 5.45041 189.569 5.35761 189.225 5.3311C188.907 5.27807 188.628 5.25156 188.39 5.25156C187.7 5.25156 187.117 5.35761 186.64 5.56972C186.163 5.75531 185.778 6.00719 185.486 6.32535C185.221 6.617 185.022 6.94841 184.89 7.3196C184.784 7.66427 184.731 8.00895 184.731 8.35362C184.731 8.67178 184.784 8.97668 184.89 9.26833C185.022 9.55998 185.248 9.85162 185.566 10.1433C185.884 10.4349 186.282 10.6868 186.759 10.8989C187.236 11.111 187.899 11.3629 188.748 11.6545C189.782 12.0257 190.763 12.4102 191.691 12.8079C192.618 13.2056 193.427 13.7093 194.117 14.3191C194.726 14.8494 195.257 15.5785 195.707 16.5065C196.158 17.4079 196.383 18.5347 196.383 19.8869C196.383 21.1861 196.158 22.3659 195.707 23.4264C195.257 24.487 194.62 25.4017 193.798 26.1706C193.003 26.9395 192.035 27.536 190.895 27.9602C189.782 28.3844 188.535 28.5966 187.157 28.5966C185.937 28.5966 184.837 28.4242 183.856 28.0795C182.875 27.7614 182.013 27.3504 181.271 26.8467C180.528 26.3429 179.879 25.7994 179.322 25.2161C178.792 24.6328 178.354 24.0893 178.01 23.5855L181.39 20.3642C181.708 21.0005 182.093 21.544 182.543 21.9947C182.994 22.4455 183.458 22.8166 183.935 23.1083C184.439 23.3734 184.943 23.5723 185.447 23.7048C185.977 23.8374 186.481 23.9037 186.958 23.9037C188.151 23.9037 189.132 23.5723 189.901 22.9094C190.67 22.2466 191.054 21.3584 191.054 20.2448C191.054 19.3169 190.71 18.5215 190.02 17.8586C189.516 17.4079 188.893 17.0367 188.151 16.7451C187.435 16.4534 186.693 16.1751 185.924 15.9099C185.235 15.6713 184.492 15.3797 183.697 15.035C182.928 14.6903 182.199 14.2131 181.509 13.6033C181.297 13.4177 181.059 13.179 180.794 12.8874C180.555 12.5958 180.33 12.2511 180.117 11.8534C179.905 11.4557 179.733 11.005 179.6 10.5012C179.468 9.97093 179.402 9.36113 179.402 8.67178C179.402 7.69079 179.561 6.73631 179.879 5.80834C180.224 4.88037 180.741 4.05846 181.43 3.3426C182.146 2.60023 183.034 2.00368 184.094 1.55295C185.155 1.10222 186.428 0.876858 187.912 0.876858C188.337 0.876858 188.84 0.916628 189.424 0.996169C190.007 1.04919 190.63 1.18176 191.293 1.39387C191.956 1.60598 192.632 1.92414 193.321 2.34835C194.037 2.74605 194.74 3.28957 195.429 3.97892L192.725 7.51845ZM206.094 11.7341H217.31V1.47341H222.48V28H217.31V16.1883H206.094V28H200.924V1.47341H206.094V11.7341ZM233.708 1.47341V28H228.538V1.47341H233.708ZM252.648 0.876858C254.742 0.876858 256.651 1.22153 258.375 1.91088C260.124 2.60022 261.622 3.56796 262.869 4.81409C264.115 6.0337 265.082 7.49194 265.772 9.18879C266.461 10.8856 266.806 12.7416 266.806 14.7566C266.806 16.7716 266.461 18.6275 265.772 20.3244C265.082 22.0212 264.115 23.4795 262.869 24.6991C261.622 25.9187 260.124 26.8732 258.375 27.5625C256.651 28.2519 254.742 28.5966 252.648 28.5966C250.553 28.5966 248.631 28.2519 246.881 27.5625C245.158 26.8732 243.673 25.9187 242.427 24.6991C241.181 23.4795 240.213 22.0212 239.524 20.3244C238.834 18.6275 238.49 16.7716 238.49 14.7566C238.49 12.7416 238.834 10.8856 239.524 9.18879C240.213 7.49194 241.181 6.0337 242.427 4.81409C243.673 3.56796 245.158 2.60022 246.881 1.91088C248.631 1.22153 250.553 0.876858 252.648 0.876858ZM252.648 23.9037C253.947 23.9037 255.127 23.6783 256.187 23.2276C257.274 22.7769 258.202 22.1538 258.971 21.3584C259.767 20.5365 260.376 19.5688 260.801 18.4552C261.251 17.3416 261.477 16.1088 261.477 14.7566C261.477 13.4044 261.251 12.1715 260.801 11.058C260.376 9.94442 259.767 8.97668 258.971 8.15477C258.202 7.33286 257.274 6.69653 256.187 6.24581C255.127 5.79508 253.947 5.56972 252.648 5.56972C251.349 5.56972 250.155 5.79508 249.068 6.24581C248.008 6.69653 247.08 7.33286 246.284 8.15477C245.516 8.97668 244.906 9.94442 244.455 11.058C244.031 12.1715 243.819 13.4044 243.819 14.7566C243.819 16.1088 244.031 17.3416 244.455 18.4552C244.906 19.5688 245.516 20.5365 246.284 21.3584C247.08 22.1538 248.008 22.7769 249.068 23.2276C250.155 23.6783 251.349 23.9037 252.648 23.9037ZM271.57 28V1.47341H275.15L291.296 19.1711V1.47341H296.466V28H292.887L276.741 10.2626V28H271.57Z" fill="white"/>
</svg>
